<?xml version="1.0" encoding="UTF-8"?>
<svg version="1.1" xmlns="http://www.w3.org/2000/svg" width="500" height="500">
<path d="M0 0 C5.25105442 -0.02464928 10.50207545 -0.04283568 15.75317383 -0.05493164 C17.54094021 -0.05997218 19.32870245 -0.06680454 21.11645508 -0.07543945 C23.68051168 -0.0875173 26.24451397 -0.09323094 28.80859375 -0.09765625 C29.6127623 -0.10281754 30.41693085 -0.10797882 31.24546814 -0.11329651 C33.16401715 -0.11349215 35.08245368 -0.06201983 37 0 C38.87824891 1.87824891 38.39102397 5.03935276 38.5625 7.5625 C38.64628906 8.76003906 38.73007813 9.95757812 38.81640625 11.19140625 C38.87699219 12.11824219 38.93757813 13.04507813 39 14 C39.78375 13.175 40.5675 12.35 41.375 11.5 C44 9 44 9 46 9 C46 8.34 46 7.68 46 7 C46.66 7 47.32 7 48 7 C48 6.34 48 5.68 48 5 C48.66 5 49.32 5 50 5 C50 4.34 50 3.68 50 3 C50.66 3 51.32 3 52 3 C52 2.34 52 1.68 52 1 C55.0826099 -0.54130495 58.30720931 -0.22561558 61.6875 -0.25 C62.38294922 -0.270625 63.07839844 -0.29125 63.79492188 -0.3125 C69.49903318 -0.35510774 74.20016206 0.65505564 78.70703125 4.4296875 C82.9253455 9.944798 84.71346176 13.98429266 84 21 C81.95633134 27.02882256 78.40699584 31.0392916 74.0625 35.5625 C73.54848633 36.11188232 73.03447266 36.66126465 72.50488281 37.22729492 C70.97265625 38.75390625 70.97265625 38.75390625 68 41 C64.20996042 40.97806055 63.12170985 40.09789705 60.125 37.6875 C58 35 58 35 58.0546875 33.13671875 C59.83358394 29.11582474 63.54214953 26.53992699 66.75 23.6328125 C69.69741078 20.18393253 70 17.42507157 70 13 C66.04 13 62.08 13 58 13 C58 13.66 58 14.32 58 15 C57.34 15 56.68 15 56 15 C56 15.66 56 16.32 56 17 C55.34 17 54.68 17 54 17 C54 17.66 54 18.32 54 19 C52.28515625 20.65625 52.28515625 20.65625 50.0625 22.5 C47.07954821 24.88926999 47.07954821 24.88926999 45 28 C44.34 28 43.68 28 43 28 C43 28.66 43 29.32 43 30 C42.34 30 41.68 30 41 30 C41 30.66 41 31.32 41 32 C39.28515625 33.65625 39.28515625 33.65625 37.0625 35.5 C34.07954821 37.88926999 34.07954821 37.88926999 32 41 C31.34 41 30.68 41 30 41 C30 41.66 30 42.32 30 43 C29.34 43 28.68 43 28 43 C28 43.66 28 44.32 28 45 C26.515 44.505 26.515 44.505 25 44 C25 33.44 25 22.88 25 12 C20.71 12 16.42 12 12 12 C12.09396674 17.28390996 12.20015442 22.56738491 12.31738281 27.85083008 C12.35552655 29.64601014 12.39040422 31.44126283 12.421875 33.23657227 C12.46784447 35.82594659 12.52578419 38.41482719 12.5859375 41.00390625 C12.59748871 41.79898087 12.60903992 42.59405548 12.62094116 43.41322327 C12.82453553 51.77852196 12.82453553 51.77852196 16.75 58.875 C20.88837726 60.94418863 23.71987798 61.39219425 28.1875 60.0234375 C34.05207972 57.38518804 38.02774373 52.09522011 42.30273438 47.453125 C42.98013672 46.7415625 43.65753906 46.03 44.35546875 45.296875 C45.26268677 44.31219238 45.26268677 44.31219238 46.18823242 43.30761719 C48 42 48 42 50.05200195 42.16503906 C55.72388569 44.59615103 59.62742291 49.70673195 63.484375 54.328125 C64.91390935 56.10791168 64.91390935 56.10791168 67 57 C67 57.66 67 58.32 67 59 C67.66 59 68.32 59 69 59 C70.515625 60.50390625 70.515625 60.50390625 72.25 62.5625 C72.86617188 63.29082031 73.48234375 64.01914062 74.1171875 64.76953125 C74.73851562 65.50558594 75.35984375 66.24164063 76 67 C76.58007812 67.64324219 77.16015625 68.28648437 77.7578125 68.94921875 C78.29148437 69.54347656 78.82515625 70.13773437 79.375 70.75 C79.85710937 71.28109375 80.33921875 71.8121875 80.8359375 72.359375 C83.63525728 76.30472502 83.48812044 81.33670654 83 86 C81.20670659 91.37988022 79.114259 95.19169421 74.13989258 98.08007812 C70.43279036 99.67373028 66.67236222 99.45114345 62.6875 99.5 C61.85798828 99.54125 61.02847656 99.5825 60.17382812 99.625 C55.34016257 99.68604076 52.6264276 99.16241917 48.89453125 95.96875 C47.90858978 95.00018506 46.93548095 94.01738588 46 93 C45.63648438 93.5374585 45.27296875 94.07491699 44.8984375 94.62866211 C43.11464265 97.12734404 41.67985676 98.44583888 39 100 C33.40186008 100.92801196 27.63023745 100.39899321 22 100 C23.73857216 96.23309364 25.90258375 93.78767463 29 91 C29.66 91 30.32 91 31 91 C31 90.34 31 89.68 31 89 C31.66 89 32.32 89 33 89 C33 88.34 33 87.68 33 87 C33.66 87 34.32 87 35 87 C35.226875 86.443125 35.45375 85.88625 35.6875 85.3125 C37.37550036 82.33840412 39.46676517 80.27991135 42 78 C42.66 78 43.32 78 44 78 C44 77.34 44 76.68 44 76 C48.51720311 75.63374029 48.51720311 75.63374029 50.8125 77.375 C52 79 52 79 52 81 C52.66 81 53.32 81 54 81 C54 81.66 54 82.32 54 83 C54.66 83 55.32 83 56 83 C56 83.66 56 84.32 56 85 C56.66 85 57.32 85 58 85 C58 85.66 58 86.32 58 87 C59.64630328 86.85957123 61.29204179 86.71250671 62.9375 86.5625 C64.31228516 86.44068359 64.31228516 86.44068359 65.71484375 86.31640625 C67.96159732 86.23955024 67.96159732 86.23955024 69 85 C69.5863982 82.21276343 69.5863982 82.21276343 69 79 C67.56744687 77.22497061 66.03969369 75.78418068 64.3125 74.296875 C63.6628125 73.65492188 63.6628125 73.65492188 63 73 C63 72.34 63 71.68 63 71 C62.34 71 61.68 71 61 71 C61 70.34 61 69.68 61 69 C60.34 69 59.68 69 59 69 C59 68.34 59 67.68 59 67 C58.34 67 57.68 67 57 67 C57 66.34 57 65.68 57 65 C56.34 65 55.68 65 55 65 C55 64.34 55 63.68 55 63 C52.35261084 61.5393715 51.10551666 61 48 61 C46.11434697 62.63459914 46.11434697 62.63459914 44.25 64.75 C38.24534771 70.9750065 32.92153541 73.67189764 24.25 74.25 C16.52876593 74.1188847 10.4102603 71.4102603 5 66 C-1.24267403 58.19665746 -1.29613457 49.9117146 -1.23046875 40.3515625 C-1.23001053 39.25782318 -1.22955231 38.16408386 -1.2290802 37.03720093 C-1.22607305 34.73947048 -1.21823316 32.4417418 -1.20581055 30.14404297 C-1.1874505 26.61548714 -1.1853018 23.08719257 -1.18554688 19.55859375 C-1.18063499 17.32291438 -1.17480811 15.0872368 -1.16796875 12.8515625 C-1.16685593 11.79329254 -1.1657431 10.73502258 -1.16459656 9.64468384 C-1.15821671 8.66961884 -1.15183685 7.69455383 -1.14526367 6.68994141 C-1.14145187 5.83026764 -1.13764008 4.97059387 -1.13371277 4.08486938 C-1 2 -1 2 0 0 Z " fill="#12908B" transform="translate(90,200)"/>
<path d="M0 0 C1.98 0 3.96 0 6 0 C7.65821263 1.65821263 7.12605572 3.61560995 7.12698364 5.89697266 C7.12980347 6.95708557 7.13262329 8.01719849 7.13552856 9.10943604 C7.13350433 10.28246277 7.1314801 11.4554895 7.12939453 12.6640625 C7.13114685 13.89155212 7.13289917 15.11904175 7.13470459 16.38372803 C7.13836283 19.75968279 7.13748964 23.13557661 7.1343255 26.51152802 C7.13180157 30.03714584 7.13413954 33.56276098 7.13571167 37.08837891 C7.13753327 43.01009593 7.13512732 48.93180049 7.13037109 54.85351562 C7.12492849 61.7091681 7.12669115 68.56479083 7.1321975 75.42044258 C7.13672891 81.29644081 7.13737904 87.17243007 7.13475883 93.04842949 C7.13319621 96.56234093 7.13300188 100.07623837 7.13629532 103.59014893 C7.13970832 107.50542363 7.13498383 111.42066477 7.12939453 115.3359375 C7.13141876 116.50896423 7.13344299 117.68199097 7.13552856 118.89056396 C7.13270874 119.95067688 7.12988892 121.01078979 7.12698364 122.10302734 C7.12660662 123.02997406 7.12622959 123.95692078 7.12584114 124.91195679 C7 127 7 127 6 128 C4.02 128 2.04 128 0 128 C0 85.76 0 43.52 0 0 Z " fill="#108C81" transform="translate(197,186)"/>
<path d="M0 0 C3.5578125 -0.0928125 3.5578125 -0.0928125 7.1875 -0.1875 C8.29387817 -0.22846802 8.29387817 -0.22846802 9.42260742 -0.27026367 C13.83987371 -0.32574048 16.48869766 0.32565614 20 3 C22.13433186 5.71642236 21.99650018 7.1014949 21.875 10.625 C21 14 21 14 18.9453125 15.2109375 C18.30335938 15.47132813 17.66140625 15.73171875 17 16 C17.3609375 16.62648437 17.721875 17.25296875 18.09375 17.8984375 C18.78984375 19.12433594 18.78984375 19.12433594 19.5 20.375 C19.9640625 21.18710938 20.428125 21.99921875 20.90625 22.8359375 C22 25 22 25 22 27 C19.03 27 16.06 27 13 27 C11.68 24.69 10.36 22.38 9 20 C8.67 22.31 8.34 24.62 8 27 C5.36 27 2.72 27 0 27 C0 18.09 0 9.18 0 0 Z M8 7 C8 8.65 8 10.3 8 12 C9.65 12 11.3 12 13 12 C13.33 11.01 13.66 10.02 14 9 C13.67 8.34 13.34 7.68 13 7 C11.35 7 9.7 7 8 7 Z " fill="#108E82" transform="translate(248,223)"/>
<path d="M0 0 C2.31 0 4.62 0 7 0 C7.33 2.64 7.66 5.28 8 8 C8.33 7.34 8.66 6.68 9 6 C9.66 6 10.32 6 11 6 C11.309375 5.195625 11.61875 4.39125 11.9375 3.5625 C13 1 13 1 14 0 C15.51928038 -0.07179964 17.04167482 -0.08392007 18.5625 -0.0625 C19.38878906 -0.05347656 20.21507812 -0.04445312 21.06640625 -0.03515625 C21.70449219 -0.02355469 22.34257812 -0.01195312 23 0 C23 0.99 23 1.98 23 3 C22.34 3 21.68 3 21 3 C20.731875 3.7425 20.46375 4.485 20.1875 5.25 C19.04723249 7.89061949 17.90619694 9.85552844 16 12 C15.34 12 14.68 12 14 12 C14.7425 13.175625 14.7425 13.175625 15.5 14.375 C17 17 17 17 17 19 C17.66 19 18.32 19 19 19 C23 24.41176471 23 24.41176471 23 27 C19.57438913 27.41905531 16.40776842 27.61912129 13 27 C10.56009168 24.86038809 9.56207511 22.91587355 8 20 C7.67 22.31 7.34 24.62 7 27 C4.69 27 2.38 27 0 27 C0 18.09 0 9.18 0 0 Z " fill="#389F95" transform="translate(216,223)"/>
<path d="M0 0 C2.97 0 5.94 0 9 0 C10.12752876 3.18662539 11.25209298 6.37424614 12.375 9.5625 C12.69210937 10.45775391 13.00921875 11.35300781 13.3359375 12.27539062 C15.05008151 17.14998765 16.64554378 22.01313845 18 27 C16.72125 27.061875 15.4425 27.12375 14.125 27.1875 C13.04605469 27.23970703 13.04605469 27.23970703 11.9453125 27.29296875 C11.30335938 27.19628906 10.66140625 27.09960938 10 27 C9.34 26.01 8.68 25.02 8 24 C6.03638136 23.42251197 6.03638136 23.42251197 3.875 23.3125 C2.59625 23.209375 1.3175 23.10625 0 23 C-0.33 24.32 -0.66 25.64 -1 27 C-3.97 27 -6.94 27 -10 27 C-7.05115659 17.81466649 -3.87225199 8.84850773 0 0 Z M4 11 C3.34 12.98 2.68 14.96 2 17 C3.32 17 4.64 17 6 17 C5.67 15.02 5.34 13.04 5 11 C4.67 11 4.34 11 4 11 Z " fill="#3CA198" transform="translate(383,223)"/>
<path d="M0 0 C2.01822917 0.06510417 4.03645833 0.13020833 6.0546875 0.1953125 C9.70601711 9.10455676 13.1464152 18.00859354 16.0546875 27.1953125 C13.0846875 27.1953125 10.1146875 27.1953125 7.0546875 27.1953125 C6.7246875 26.2053125 6.3946875 25.2153125 6.0546875 24.1953125 C3.0846875 23.8653125 0.1146875 23.5353125 -2.9453125 23.1953125 C-2.9453125 24.5153125 -2.9453125 25.8353125 -2.9453125 27.1953125 C-5.9153125 27.1953125 -8.8853125 27.1953125 -11.9453125 27.1953125 C-10.18263554 21.16510185 -8.32800728 15.1688641 -6.3828125 9.1953125 C-6.17309814 8.536521 -5.96338379 7.87772949 -5.74731445 7.19897461 C-3.49303726 0.35070655 -3.49303726 0.35070655 0 0 Z M1.0546875 12.1953125 C0.3946875 13.8453125 -0.2653125 15.4953125 -0.9453125 17.1953125 C0.7046875 17.1953125 2.3546875 17.1953125 4.0546875 17.1953125 C3.3946875 15.5453125 2.7346875 13.8953125 2.0546875 12.1953125 C1.7246875 12.1953125 1.3946875 12.1953125 1.0546875 12.1953125 Z " fill="#319D93" transform="translate(316.9453125,222.8046875)"/>
<path d="M0 0 C1.27875 -0.061875 2.5575 -0.12375 3.875 -0.1875 C4.95394531 -0.23970703 4.95394531 -0.23970703 6.0546875 -0.29296875 C6.69664062 -0.19628906 7.33859375 -0.09960938 8 0 C10.00810938 3.01216408 10.68784766 5.15386662 11.5625 8.625 C12.22007736 12.10760949 12.22007736 12.10760949 14 15 C14.26554687 14.33613281 14.53109375 13.67226562 14.8046875 12.98828125 C16.53645833 8.65885417 18.26822917 4.32942708 20 0 C22.31 0 24.62 0 27 0 C28.62668045 3.25336091 26.94802559 5.99941915 25.890625 9.33984375 C23.87636739 15.35611319 21.54239272 21.18881663 19 27 C15.7 27 12.4 27 9 27 C6.5316513 20.63692076 4.07551442 14.26871601 1.6875 7.875 C1.36136719 7.00617188 1.03523438 6.13734375 0.69921875 5.2421875 C0 3 0 3 0 0 Z " fill="#1A9186" transform="translate(339,223)"/>
<path d="M0 0 C1.58206057 0.00667536 3.16410534 0.0186375 4.74609375 0.03515625 C5.55240234 0.03966797 6.35871094 0.04417969 7.18945312 0.04882812 C9.18753131 0.06065107 11.18557158 0.07858711 13.18359375 0.09765625 C13.18359375 2.40765625 13.18359375 4.71765625 13.18359375 7.09765625 C10.21359375 7.09765625 7.24359375 7.09765625 4.18359375 7.09765625 C4.18359375 8.08765625 4.18359375 9.07765625 4.18359375 10.09765625 C6.49359375 10.09765625 8.80359375 10.09765625 11.18359375 10.09765625 C11.18359375 12.40765625 11.18359375 14.71765625 11.18359375 17.09765625 C8.87359375 17.09765625 6.56359375 17.09765625 4.18359375 17.09765625 C4.18359375 18.41765625 4.18359375 19.73765625 4.18359375 21.09765625 C7.15359375 21.09765625 10.12359375 21.09765625 13.18359375 21.09765625 C13.18359375 23.07765625 13.18359375 25.05765625 13.18359375 27.09765625 C7.24359375 27.09765625 1.30359375 27.09765625 -4.81640625 27.09765625 C-4.84322924 22.78511542 -4.86315869 18.47273918 -4.87890625 14.16015625 C-4.88728516 12.92845703 -4.89566406 11.69675781 -4.90429688 10.42773438 C-4.90751953 9.25791016 -4.91074219 8.08808594 -4.9140625 6.8828125 C-4.91929932 5.7987915 -4.92453613 4.71477051 -4.92993164 3.59790039 C-4.74569928 -0.4595697 -4.26365385 0.10910066 0 0 Z " fill="#0D8D81" transform="translate(283.81640625,222.90234375)"/>
<path d="M0 0 C4.51720311 -0.36625971 4.51720311 -0.36625971 6.8125 1.375 C8 3 8 3 8 5 C8.66 5 9.32 5 10 5 C10 5.66 10 6.32 10 7 C10.66 7 11.32 7 12 7 C12 7.66 12 8.32 12 9 C12.66 9.33 13.32 9.66 14 10 C13.2575 10.144375 12.515 10.28875 11.75 10.4375 C9.47972261 10.90187492 7.24240521 11.41863569 5 12 C5.66 13.98 6.32 15.96 7 18 C7.66 18 8.32 18 9 18 C8.67 19.32 8.34 20.64 8 22 C6.02 20.35 4.04 18.7 2 17 C1.69191406 17.5053125 1.38382813 18.010625 1.06640625 18.53125 C-1.20626367 21.50638153 -3.15800242 23.69464933 -7 24.33154297 C-12.01258132 24.6285123 -16.99669434 24.35456497 -22 24 C-20.26142784 20.23309364 -18.09741625 17.78767463 -15 15 C-14.34 15 -13.68 15 -13 15 C-13 14.34 -13 13.68 -13 13 C-12.34 13 -11.68 13 -11 13 C-11 12.34 -11 11.68 -11 11 C-10.34 11 -9.68 11 -9 11 C-8.773125 10.443125 -8.54625 9.88625 -8.3125 9.3125 C-6.62449964 6.33840412 -4.53323483 4.27991135 -2 2 C-1.34 2 -0.68 2 0 2 C0 1.34 0 0.68 0 0 Z " fill="#0E8E87" transform="translate(134,276)"/>
<path d="M0 0 C1.98 0 3.96 0 6 0 C7.65821263 1.65821263 7.12605572 3.61560995 7.12698364 5.89697266 C7.12980347 6.95708557 7.13262329 8.01719849 7.13552856 9.10943604 C7.13350433 10.28246277 7.1314801 11.4554895 7.12939453 12.6640625 C7.13114685 13.89155212 7.13289917 15.11904175 7.13470459 16.38372803 C7.13836283 19.75968279 7.13748964 23.13557661 7.1343255 26.51152802 C7.13180157 30.03714584 7.13413954 33.56276098 7.13571167 37.08837891 C7.13753327 43.01009593 7.13512732 48.93180049 7.13037109 54.85351562 C7.12492849 61.7091681 7.12669115 68.56479083 7.1321975 75.42044258 C7.13672891 81.29644081 7.13737904 87.17243007 7.13475883 93.04842949 C7.13319621 96.56234093 7.13300188 100.07623837 7.13629532 103.59014893 C7.13970832 107.50542363 7.13498383 111.42066477 7.12939453 115.3359375 C7.13141876 116.50896423 7.13344299 117.68199097 7.13552856 118.89056396 C7.13270874 119.95067688 7.12988892 121.01078979 7.12698364 122.10302734 C7.12660662 123.02997406 7.12622959 123.95692078 7.12584114 124.91195679 C7 127 7 127 6 128 C4.02 128 2.04 128 0 128 C0 85.76 0 43.52 0 0 Z M1 2 C1 42.59 1 83.18 1 125 C2.32 125.33 3.64 125.66 5 126 C5 85.08 5 44.16 5 2 C3.68 2 2.36 2 1 2 Z " fill="#7DBFBB" transform="translate(197,186)"/>
<path d="M0 0 C0.99 0 1.98 0 3 0 C5.23551402 7.89308411 5.23551402 7.89308411 4.375 11.9375 C2.75362775 14.36955838 1.68630625 14.92058463 -1 16 C-3.19824219 16.22705078 -3.19824219 16.22705078 -5.546875 16.1953125 C-6.81337891 16.18564453 -6.81337891 16.18564453 -8.10546875 16.17578125 C-8.97816406 16.15902344 -9.85085937 16.14226562 -10.75 16.125 C-11.63816406 16.11597656 -12.52632812 16.10695313 -13.44140625 16.09765625 C-15.62788058 16.07414577 -17.81380094 16.04128499 -20 16 C-20 14.35 -20 12.7 -20 11 C-20.66 11 -21.32 11 -22 11 C-22.28875 10.38125 -22.5775 9.7625 -22.875 9.125 C-23.93720042 6.86674235 -23.93720042 6.86674235 -26 5 C-21.05586159 2.35618704 -16.13199976 2.77495972 -10.6875 2.875 C-9.75615234 2.88402344 -8.82480469 2.89304687 -7.86523438 2.90234375 C-5.5765564 2.92581737 -3.28841328 2.95865271 -1 3 C-0.67 2.01 -0.34 1.02 0 0 Z " fill="#109089" transform="translate(163,283)"/>
<path d="M0 0 C3.44175831 1.14725277 4.29119275 2.25284652 6.5625 5 C8.92210327 7.94959179 8.92210327 7.94959179 12 10 C12 10.66 12 11.32 12 12 C12.66 12 13.32 12 14 12 C15.515625 13.50390625 15.515625 13.50390625 17.25 15.5625 C18.17425781 16.65498047 18.17425781 16.65498047 19.1171875 17.76953125 C19.73851562 18.50558594 20.35984375 19.24164063 21 20 C21.87011719 20.96486328 21.87011719 20.96486328 22.7578125 21.94921875 C23.55832031 22.84060547 23.55832031 22.84060547 24.375 23.75 C24.85710937 24.28109375 25.33921875 24.8121875 25.8359375 25.359375 C28.63320201 29.30182834 28.49466361 34.33974811 28 39 C26.84502906 43.08620755 25.63357891 45.57761406 22 48 C22.04125 47.113125 22.0825 46.22625 22.125 45.3125 C22.00102754 42.02722987 21.38612096 39.94550705 20 37 C17.87635519 36.77390663 17.87635519 36.77390663 16.375 38.5 C15.92125 38.995 15.4675 39.49 15 40 C14.34 39.67 13.68 39.34 13 39 C13.495 38.505 13.495 38.505 14 38 C14.5863982 35.21276343 14.5863982 35.21276343 14 32 C12.56744687 30.22497061 11.03969369 28.78418068 9.3125 27.296875 C8.879375 26.86890625 8.44625 26.4409375 8 26 C8 25.34 8 24.68 8 24 C9.32 24.33 10.64 24.66 12 25 C12 25.66 12 26.32 12 27 C15.40424844 25.86525052 16.21653709 25.03188696 18 22 C17.67 21.01 17.34 20.02 17 19 C16.01 19.33 15.02 19.66 14 20 C12 18 12 18 11.5625 15.9375 C11.376875 15.298125 11.19125 14.65875 11 14 C10.01 13.67 9.02 13.34 8 13 C8 12.34 8 11.68 8 11 C6.68 11.33 5.36 11.66 4 12 C4 9.69 4 7.38 4 5 C2.68 5 1.36 5 0 5 C0 3.35 0 1.7 0 0 Z " fill="#1F9690" transform="translate(145,247)"/>
<path d="M0 0 C2.97 0 5.94 0 9 0 C8.67 3.3 8.34 6.6 8 10 C7.01 9.34 6.02 8.68 5 8 C4.01 8.33 3.02 8.66 2 9 C2.33 12.63 2.66 16.26 3 20 C2.01 20.33 1.02 20.66 0 21 C-0.33 22.65 -0.66 24.3 -1 26 C-3.64 26 -6.28 26 -9 26 C-6.12971445 17.28327218 -3.20128981 8.6023486 0 0 Z " fill="#0E8C80" transform="translate(382,224)"/>
<path d="M0 0 C0.42925781 0.64453125 0.85851562 1.2890625 1.30078125 1.953125 C2.91700453 4.31836775 2.91700453 4.31836775 6.1875 4.75 C7.115625 4.8325 8.04375 4.915 9 5 C9.33 3.68 9.66 2.36 10 1 C10.33 1.66 10.66 2.32 11 3 C11.99 3 12.98 3 14 3 C14.33 3.99 14.66 4.98 15 6 C15.99 6.66 16.98 7.32 18 8 C19.1875 11.625 19.1875 11.625 20 15 C17.03 15 14.06 15 11 15 C10.67 14.01 10.34 13.02 10 12 C7.03 11.67 4.06 11.34 1 11 C1 12.32 1 13.64 1 15 C-0.98 15 -2.96 15 -5 15 C-5 11.37149374 -3.93046332 9.13832722 -2.5 5.8125 C-2.0359375 4.72582031 -1.571875 3.63914063 -1.09375 2.51953125 C-0.7328125 1.68808594 -0.371875 0.85664063 0 0 Z " fill="#359F96" transform="translate(313,235)"/>
<path d="M0 0 C3.5578125 -0.0928125 3.5578125 -0.0928125 7.1875 -0.1875 C8.29387817 -0.22846802 8.29387817 -0.22846802 9.42260742 -0.27026367 C13.83987371 -0.32574048 16.48869766 0.32565614 20 3 C22.13433186 5.71642236 21.99650018 7.1014949 21.875 10.625 C21 14 21 14 19 15.3125 C18.01 15.6528125 18.01 15.6528125 17 16 C16.67 16.66 16.34 17.32 16 18 C16 17.01 16 16.02 16 15 C15.4225 14.87625 14.845 14.7525 14.25 14.625 C11.97664233 13.99351176 10.0746471 13.11141809 8 12 C9.65 12 11.3 12 13 12 C13 10.35 13 8.7 13 7 C14.2065625 6.7834375 14.2065625 6.7834375 15.4375 6.5625 C17.92103706 6.25864751 17.92103706 6.25864751 19 5 C17.35 5 15.7 5 14 5 C14.33 4.01 14.66 3.02 15 2 C10.71 2 6.42 2 2 2 C2 9.92 2 17.84 2 26 C3.65 26 5.3 26 7 26 C7 23.36 7 20.72 7 18 C7.33 18 7.66 18 8 18 C8 20.97 8 23.94 8 27 C5.36 27 2.72 27 0 27 C0 18.09 0 9.18 0 0 Z " fill="#2C988F" transform="translate(248,223)"/>
<path d="M0 0 C2.125 0.9375 2.125 0.9375 4 2 C3.505 2.763125 3.01 3.52625 2.5 4.3125 C0.75631692 6.92363751 0.75631692 6.92363751 1 10 C0.02149805 11.02104551 -0.97980427 12.0206121 -2 13 C-2.33 13.99 -2.66 14.98 -3 16 C-9.40946558 18.76772377 -16.13426846 18.18583935 -23 18 C-20.38379397 12.66865578 -20.38379397 12.66865578 -18 11 C-16.6326756 10.76292359 -15.25534147 10.58046394 -13.875 10.4375 C-12.59625 10.293125 -11.3175 10.14875 -10 10 C-9.67 9.34 -9.34 8.68 -9 8 C-8.38125 7.9175 -7.7625 7.835 -7.125 7.75 C-4.6426602 7.14098833 -4.6426602 7.14098833 -3.375 4 C-2.92125 3.01 -2.4675 2.02 -2 1 C-1.34 0.67 -0.68 0.34 0 0 Z " fill="#048C84" transform="translate(131,253)"/>
<path d="M0 0 C5.28 0.33 10.56 0.66 16 1 C16.33 10.24 16.66 19.48 17 29 C18.65 29 20.3 29 22 29 C22 29.66 22 30.32 22 31 C21.34 31 20.68 31 20 31 C20 31.66 20 32.32 20 33 C19.34 33 18.68 33 18 33 C18 33.66 18 34.32 18 35 C16.515 34.505 16.515 34.505 15 34 C15 23.44 15 12.88 15 2 C10.71 2 6.42 2 2 2 C2.11879169 7.28374756 2.24307356 12.56732776 2.37231445 17.85083008 C2.41546937 19.64604232 2.45715705 21.44129048 2.49731445 23.23657227 C2.55549113 25.82579343 2.61904571 28.41483701 2.68359375 31.00390625 C2.70030624 31.79898087 2.71701874 32.59405548 2.73423767 33.41322327 C2.85514275 38.02181001 3.2560912 42.44918426 4 47 C3.01 46.67 2.02 46.34 1 46 C-0.1650499 43.6699002 -0.1209358 42.32752923 -0.11352539 39.73388672 C-0.11344986 38.85312469 -0.11337433 37.97236267 -0.11329651 37.06491089 C-0.10813522 36.11278717 -0.10297394 35.16066345 -0.09765625 34.1796875 C-0.0962413 33.20589142 -0.09482635 32.23209534 -0.09336853 31.22879028 C-0.08775973 28.11082927 -0.07520573 24.9929394 -0.0625 21.875 C-0.05748613 19.76432395 -0.05292303 17.65364678 -0.04882812 15.54296875 C-0.03778744 10.36195165 -0.02051689 5.1809879 0 0 Z " fill="#59ADAB" transform="translate(100,210)"/>
<path d="M0 0 C1.32 0 2.64 0 4 0 C4.33 3.3 4.66 6.6 5 10 C6.98 10 8.96 10 11 10 C10.67 11.65 10.34 13.3 10 15 C8.68 15.33 7.36 15.66 6 16 C6 18.97 6 21.94 6 25 C3.69 25 1.38 25 -1 25 C-0.67 16.75 -0.34 8.5 0 0 Z " fill="#0C8E81" transform="translate(217,225)"/>
<path d="M0 0 C0.66 0.33 1.32 0.66 2 1 C2.33 1.99 2.66 2.98 3 4 C2.01 5.485 2.01 5.485 1 7 C1.33 7.99 1.66 8.98 2 10 C1.401875 10.20625 0.80375 10.4125 0.1875 10.625 C-2.81018767 12.50926082 -3.61361776 14.81132084 -5 18 C-8.63 18 -12.26 18 -16 18 C-17 13 -17 13 -15.875 11.25 C-13.5900165 9.72667767 -11.70071117 9.40510668 -9 9 C-8.01 8.67 -7.02 8.34 -6 8 C-5.01 8.33 -4.02 8.66 -3 9 C-3.061875 8.071875 -3.12375 7.14375 -3.1875 6.1875 C-3 3 -3 3 -1.5 1.125 C-1.005 0.75375 -0.51 0.3825 0 0 Z " fill="#038C85" transform="translate(133,281)"/>
<path d="M0 0 C1.98 0 3.96 0 6 0 C6 0.33 6 0.66 6 1 C4.35 1 2.7 1 1 1 C1.33 41.92 1.66 82.84 2 125 C3.32 125.66 4.64 126.32 6 127 C6 127.33 6 127.66 6 128 C4.02 128 2.04 128 0 128 C0 85.76 0 43.52 0 0 Z " fill="#6DABA6" transform="translate(197,186)"/>
<path d="M0 0 C1.58206057 0.00667536 3.16410534 0.0186375 4.74609375 0.03515625 C5.55240234 0.03966797 6.35871094 0.04417969 7.18945312 0.04882812 C9.18753131 0.06065107 11.18557158 0.07858711 13.18359375 0.09765625 C13.18359375 2.40765625 13.18359375 4.71765625 13.18359375 7.09765625 C10.21359375 7.09765625 7.24359375 7.09765625 4.18359375 7.09765625 C4.18359375 8.08765625 4.18359375 9.07765625 4.18359375 10.09765625 C6.49359375 10.09765625 8.80359375 10.09765625 11.18359375 10.09765625 C11.18359375 10.42765625 11.18359375 10.75765625 11.18359375 11.09765625 C8.54359375 11.09765625 5.90359375 11.09765625 3.18359375 11.09765625 C3.18359375 9.44765625 3.18359375 7.79765625 3.18359375 6.09765625 C6.15359375 6.09765625 9.12359375 6.09765625 12.18359375 6.09765625 C12.18359375 4.44765625 12.18359375 2.79765625 12.18359375 1.09765625 C7.23359375 1.42765625 2.28359375 1.75765625 -2.81640625 2.09765625 C-2.81640625 10.01765625 -2.81640625 17.93765625 -2.81640625 26.09765625 C1.80359375 26.09765625 6.42359375 26.09765625 11.18359375 26.09765625 C11.18359375 24.77765625 11.18359375 23.45765625 11.18359375 22.09765625 C8.54359375 22.09765625 5.90359375 22.09765625 3.18359375 22.09765625 C3.18359375 20.11765625 3.18359375 18.13765625 3.18359375 16.09765625 C5.82359375 16.09765625 8.46359375 16.09765625 11.18359375 16.09765625 C11.18359375 16.42765625 11.18359375 16.75765625 11.18359375 17.09765625 C8.87359375 17.09765625 6.56359375 17.09765625 4.18359375 17.09765625 C4.18359375 18.41765625 4.18359375 19.73765625 4.18359375 21.09765625 C7.15359375 21.09765625 10.12359375 21.09765625 13.18359375 21.09765625 C13.18359375 23.07765625 13.18359375 25.05765625 13.18359375 27.09765625 C7.24359375 27.09765625 1.30359375 27.09765625 -4.81640625 27.09765625 C-4.84322924 22.78511542 -4.86315869 18.47273918 -4.87890625 14.16015625 C-4.88728516 12.92845703 -4.89566406 11.69675781 -4.90429688 10.42773438 C-4.90751953 9.25791016 -4.91074219 8.08808594 -4.9140625 6.8828125 C-4.91929932 5.7987915 -4.92453613 4.71477051 -4.92993164 3.59790039 C-4.74569928 -0.4595697 -4.26365385 0.10910066 0 0 Z " fill="#7AB7B2" transform="translate(283.81640625,222.90234375)"/>
<path d="M0 0 C2.23775292 1.00313062 3.8507388 1.84476835 5.5625 3.625 C7.02978279 5.34561132 7.02978279 5.34561132 10 5 C10.33 4.34 10.66 3.68 11 3 C12.32 3 13.64 3 15 3 C15.17700355 7.60209225 15.10814567 9.78370866 13 14 C9.7 14 6.4 14 3 14 C0.56574762 9.03006806 -0.34615998 5.65394631 0 0 Z " fill="#0E8E83" transform="translate(345,236)"/>
<path d="M0 0 C0.55300781 0.26167969 1.10601562 0.52335938 1.67578125 0.79296875 C1.26552414 6.26306352 -0.57846019 10.7803368 -4.32421875 14.79296875 C-8.01171875 15.91796875 -8.01171875 15.91796875 -11.32421875 15.79296875 C-11.98421875 15.13296875 -12.64421875 14.47296875 -13.32421875 13.79296875 C-13.15140024 9.61803729 -10.31203272 7.31358288 -7.51171875 4.48046875 C-6.63902344 3.57683594 -5.76632813 2.67320312 -4.8671875 1.7421875 C-2.32421875 -0.20703125 -2.32421875 -0.20703125 0 0 Z " fill="#239994" transform="translate(161.32421875,221.20703125)"/>
<path d="M0 0 C4 1 4 1 5 2 C5.33 1.34 5.66 0.68 6 0 C7.32 0 8.64 0 10 0 C10 3.96 10 7.92 10 12 C8.68 12 7.36 12 6 12 C6 11.34 6 10.68 6 10 C5.34 10 4.68 10 4 10 C3.67 10.66 3.34 11.32 3 12 C2.01 12 1.02 12 0 12 C0 8.04 0 4.08 0 0 Z " fill="#4CA39F" transform="translate(341,268)"/>
<path d="M0 0 C6.36 -0.36 6.36 -0.36 9 1.125 C10.48789702 3.9148069 9.62936304 5.9790574 9 9 C9.33 9.99 9.66 10.98 10 12 C6.7 12 3.4 12 0 12 C0 8.04 0 4.08 0 0 Z " fill="#419B97" transform="translate(378,268)"/>
<path d="M0 0 C6 0 6 0 7.86328125 1.20703125 C9.98909673 4.56012164 9.16779576 8.14069746 9 12 C6.03 12 3.06 12 0 12 C0 8.04 0 4.08 0 0 Z " fill="#71B6B0" transform="translate(231,268)"/>
<path d="M0 0 C2.64 0 5.28 0 8 0 C8.55808089 1.43120744 9.09596462 2.87030355 9.625 4.3125 C9.92664063 5.11300781 10.22828125 5.91351563 10.5390625 6.73828125 C10.69117188 7.48464844 10.84328125 8.23101562 11 9 C9 12 9 12 6.875 12.6875 C6.25625 12.790625 5.6375 12.89375 5 13 C2 8.25 2 8.25 2 6 C1.01 6.33 0.02 6.66 -1 7 C-0.67 4.69 -0.34 2.38 0 0 Z " fill="#25948A" transform="translate(315,223)"/>
<path d="M0 0 C2.64 0 5.28 0 8 0 C8 3.96 8 7.92 8 12 C5.36 12 2.72 12 0 12 C0 8.04 0 4.08 0 0 Z " fill="#68B5B2" transform="translate(300,268)"/>
<path d="M0 0 C4.95 0 9.9 0 15 0 C15 0.66 15 1.32 15 2 C10.71 2 6.42 2 2 2 C2 9.92 2 17.84 2 26 C3.65 26 5.3 26 7 26 C7 23.36 7 20.72 7 18 C7.33 18 7.66 18 8 18 C8 20.97 8 23.94 8 27 C5.36 27 2.72 27 0 27 C0 18.09 0 9.18 0 0 Z " fill="#61AFAA" transform="translate(248,223)"/>
<path d="M0 0 C2.5625 0.1875 2.5625 0.1875 4.5625 2.1875 C4.79296875 4.0625 4.79296875 4.0625 4.75 6.1875 C4.74033203 7.239375 4.74033203 7.239375 4.73046875 8.3125 C4.5625 10.1875 4.5625 10.1875 3.5625 12.1875 C1.5825 12.1875 -0.3975 12.1875 -2.4375 12.1875 C-4.66723706 8.00674301 -4.50048558 5.79377084 -3.4375 1.1875 C-2.4375 0.1875 -2.4375 0.1875 0 0 Z " fill="#5FAFAC" transform="translate(356.4375,267.8125)"/>
<path d="M0 0 C0.928125 0.20625 1.85625 0.4125 2.8125 0.625 C3.1425 1.945 3.4725 3.265 3.8125 4.625 C1.8325 4.625 -0.1475 4.625 -2.1875 4.625 C-2.5175 5.615 -2.8475 6.605 -3.1875 7.625 C0.2775 7.13 0.2775 7.13 3.8125 6.625 C3.4825 7.945 3.1525 9.265 2.8125 10.625 C-3.5475 11.945 -3.5475 11.945 -6.1875 10.625 C-7.79309331 7.41381337 -7.04947805 5.01134233 -6.1875 1.625 C-3.1875 -0.375 -3.1875 -0.375 0 0 Z " fill="#7BBAB4" transform="translate(225.1875,268.375)"/>
<path d="M0 0 C1.65 0 3.3 0 5 0 C5.99 3.96 6.98 7.92 8 12 C6.68 12 5.36 12 4 12 C4 11.34 4 10.68 4 10 C3.01 10 2.02 10 1 10 C1 10.66 1 11.32 1 12 C-0.32 12 -1.64 12 -3 12 C-2.49202991 7.6822542 -1.80317221 3.96697886 0 0 Z " fill="#5BA9A4" transform="translate(253,268)"/>
<path d="M0 0 C2.375 0.1875 2.375 0.1875 5 1 C6.3125 3.5625 6.3125 3.5625 7 6 C7.66 6 8.32 6 9 6 C8.67 7.32 8.34 8.64 8 10 C6.02 8.35 4.04 6.7 2 5 C1.69191406 5.5053125 1.38382813 6.010625 1.06640625 6.53125 C-1.20626367 9.50638153 -3.15800242 11.69464933 -7 12.33154297 C-12.01258132 12.6285123 -16.99669434 12.35456497 -22 12 C-20.25 8.125 -20.25 8.125 -18 7 C-17.67 7.99 -17.34 8.98 -17 10 C-13.60075333 10.35030405 -10.38467927 10.5391997 -7 10 C-4.55680773 7.16931218 -4.55680773 7.16931218 -3 4 C-0.75 3.125 -0.75 3.125 1 3 C0.67 2.01 0.34 1.02 0 0 Z " fill="#3BA49E" transform="translate(134,288)"/>
<path d="M0 0 C2.31 0 4.62 0 7 0 C7.96070434 2.88211302 8.10581883 4.69850044 8.0625 7.6875 C8.05347656 8.49574219 8.04445312 9.30398438 8.03515625 10.13671875 C8.02355469 10.75160156 8.01195312 11.36648438 8 12 C5.36 12 2.72 12 0 12 C0 8.04 0 4.08 0 0 Z " fill="#5CA8A4" transform="translate(241,268)"/>
<path d="M0 0 C2.5625 0.1875 2.5625 0.1875 4.5625 2.1875 C4.828125 4.0625 4.828125 4.0625 4.8125 6.1875 C4.81765625 6.88875 4.8228125 7.59 4.828125 8.3125 C4.5625 10.1875 4.5625 10.1875 2.5625 12.1875 C-0.0625 12.3125 -0.0625 12.3125 -2.4375 12.1875 C-4.2550673 8.89315928 -4.77612405 6.83224539 -4 3.0625 C-3.16639934 0.28383115 -2.96863901 0.22835685 0 0 Z " fill="#59A8A3" transform="translate(294.4375,267.8125)"/>
<path d="M0 0 C0.66 0.33 1.32 0.66 2 1 C2.625 3.5625 2.625 3.5625 3 6 C3.99 6 4.98 6 6 6 C6.66 7.32 7.32 8.64 8 10 C5.25 13.875 5.25 13.875 3 15 C2.34 14.67 1.68 14.34 1 14 C1 13.34 1 12.68 1 12 C-1.475 11.01 -1.475 11.01 -4 10 C-4 8.02 -4 6.04 -4 4 C-3.34 4 -2.68 4 -2 4 C-2 3.01 -2 2.02 -2 1 C-1.34 0.67 -0.68 0.34 0 0 Z " fill="#098C85" transform="translate(156,260)"/>
<path d="M0 0 C6.41868512 -0.3633218 6.41868512 -0.3633218 9 1.25 C10 3 10 3 9.6875 5.1875 C9.3471875 6.0846875 9.3471875 6.0846875 9 7 C7.35 7.33 5.7 7.66 4 8 C4 9.32 4 10.64 4 12 C2.68 12 1.36 12 0 12 C0 8.04 0 4.08 0 0 Z " fill="#67B0AC" transform="translate(362,268)"/>
<path d="M0 0 C2.31 0 4.62 0 7 0 C7 3.96 7 7.92 7 12 C4.69 12 2.38 12 0 12 C0 8.04 0 4.08 0 0 Z " fill="#319A93" transform="translate(389,268)"/>
<path d="M0 0 C0.33 1.32 0.66 2.64 1 4 C0.34 4 -0.32 4 -1 4 C-1 5.32 -1 6.64 -1 8 C-2.39254958 10.56522292 -3.29734842 11.74449033 -6.0625 12.75 C-19.37773723 13.88321168 -19.37773723 13.88321168 -25 11 C-25.875 8.875 -25.875 8.875 -26 7 C-25.29875 7.474375 -24.5975 7.94875 -23.875 8.4375 C-19.42211014 10.85754883 -16.5519474 11.4310965 -11.625 10.0625 C-6.88182585 7.81294089 -3.49309198 3.81971877 0 0 Z " fill="#37A09C" transform="translate(130,250)"/>
<path d="M0 0 C0.75410156 0.00451172 1.50820312 0.00902344 2.28515625 0.01367188 C4.14847127 0.02546501 6.01174555 0.04340058 7.875 0.0625 C7.875 0.3925 7.875 0.7225 7.875 1.0625 C3.255 1.7225 -1.365 2.3825 -6.125 3.0625 C-6.125 3.7225 -6.125 4.3825 -6.125 5.0625 C-8.11784138 6.4065093 -10.11919671 7.73791292 -12.125 9.0625 C-12.99125 9.990625 -13.8575 10.91875 -14.75 11.875 C-15.53375 12.596875 -16.3175 13.31875 -17.125 14.0625 C-19.4375 13.875 -19.4375 13.875 -21.125 13.0625 C-19.75 11.0625 -19.75 11.0625 -18.125 9.0625 C-17.465 9.0625 -16.805 9.0625 -16.125 9.0625 C-16.125 8.4025 -16.125 7.7425 -16.125 7.0625 C-15.465 7.0625 -14.805 7.0625 -14.125 7.0625 C-14.125 6.4025 -14.125 5.7425 -14.125 5.0625 C-13.465 5.0625 -12.805 5.0625 -12.125 5.0625 C-12.125 4.4025 -12.125 3.7425 -12.125 3.0625 C-11.465 3.0625 -10.805 3.0625 -10.125 3.0625 C-10.125 2.4025 -10.125 1.7425 -10.125 1.0625 C-6.93675432 -0.53162284 -3.49603338 -0.03924735 0 0 Z " fill="#47A5A1" transform="translate(152.125,199.9375)"/>
<path d="M0 0 C2.31 0 4.62 0 7 0 C7 3.96 7 7.92 7 12 C4.69 12 2.38 12 0 12 C0 8.04 0 4.08 0 0 Z " fill="#65ACA9" transform="translate(272,268)"/>
<path d="M0 0 C1.32 0 2.64 0 4 0 C4 2.64 4 5.28 4 8 C6.64 8 9.28 8 12 8 C12 9.32 12 10.64 12 12 C8.04 12 4.08 12 0 12 C0 8.04 0 4.08 0 0 Z " fill="#8ECBC7" transform="translate(317,268)"/>
<path d="M0 0 C1.75 0.0625 1.75 0.0625 4 1 C6.52062104 4.85506748 8.42378406 8.66540615 10 13 C7.03 13 4.06 13 1 13 C0.63779734 11.20994059 0.28547531 9.41787943 -0.0625 7.625 C-0.25972656 6.62726563 -0.45695312 5.62953125 -0.66015625 4.6015625 C-1 2 -1 2 0 0 Z " fill="#0C8D80" transform="translate(260,237)"/>
<path d="M0 0 C3.44175831 1.14725277 4.29119275 2.25284652 6.5625 5 C8.92210327 7.94959179 8.92210327 7.94959179 12 10 C12 10.66 12 11.32 12 12 C12.66 12 13.32 12 14 12 C15.2890625 13.53125 15.2890625 13.53125 16.625 15.5 C17.07101563 16.1496875 17.51703125 16.799375 17.9765625 17.46875 C18.31429687 17.9740625 18.65203125 18.479375 19 19 C16.625 19.625 16.625 19.625 14 20 C12 18 12 18 11.5625 15.9375 C11.376875 15.298125 11.19125 14.65875 11 14 C10.01 13.67 9.02 13.34 8 13 C8 12.34 8 11.68 8 11 C6.68 11.33 5.36 11.66 4 12 C4 9.69 4 7.38 4 5 C2.68 5 1.36 5 0 5 C0 3.35 0 1.7 0 0 Z " fill="#289B93" transform="translate(145,247)"/>
<path d="M0 0 C2.09807945 2.67744188 3.39676766 4.62189888 4 8 C6.31 8.33 8.62 8.66 11 9 C11 9.33 11 9.66 11 10 C7.37 10 3.74 10 0 10 C0 11.65 0 13.3 0 15 C-1.65 15 -3.3 15 -5 15 C-5 11.37149374 -3.93046332 9.13832722 -2.5 5.8125 C-2.0359375 4.72582031 -1.571875 3.63914063 -1.09375 2.51953125 C-0.7328125 1.68808594 -0.371875 0.85664063 0 0 Z " fill="#0F8D80" transform="translate(313,235)"/>
<path d="M0 0 C3.3 0 6.6 0 10 0 C10 1.32 10 2.64 10 4 C9.01 4 8.02 4 7 4 C7 6.64 7 9.28 7 12 C5.68 12 4.36 12 3 12 C3 9.36 3 6.72 3 4 C2.01 4 1.02 4 0 4 C0 2.68 0 1.36 0 0 Z " fill="#6DB4B1" transform="translate(261,268)"/>
<path d="M0 0 C0.33 0 0.66 0 1 0 C1.00586624 0.67572052 1.01173248 1.35144104 1.01777649 2.04763794 C1.08177085 9.08834808 1.1662068 16.1286037 1.26245117 23.16894531 C1.29568038 25.79551191 1.3237185 28.42214957 1.34643555 31.04882812 C1.38001728 34.82713061 1.43233753 38.60478305 1.48828125 42.3828125 C1.49467117 43.55490265 1.5010611 44.7269928 1.50764465 45.93460083 C1.61212836 51.7445968 1.74326691 56.09404818 5 61 C4.01 61 3.02 61 2 61 C-0.28458499 57.57312252 -0.24451452 56.36059689 -0.22705078 52.33520508 C-0.22689972 51.17422806 -0.22674866 50.01325104 -0.22659302 48.8170929 C-0.21627045 47.56389755 -0.20594788 46.31070221 -0.1953125 45.01953125 C-0.1924826 43.73640549 -0.18965271 42.45327972 -0.18673706 41.13127136 C-0.17910797 37.72323798 -0.15946587 34.31537559 -0.1373291 30.90740967 C-0.11685497 27.42853102 -0.107732 23.94962468 -0.09765625 20.47070312 C-0.07621918 13.64706526 -0.04209205 6.82354084 0 0 Z " fill="#179190" transform="translate(91,202)"/>
<path d="M0 0 C0.99 0.66 1.98 1.32 3 2 C3 2.99 3 3.98 3 5 C4.65 5 6.3 5 8 5 C8.66 7.31 9.32 9.62 10 12 C7.36 12 4.72 12 2 12 C2 10.02 2 8.04 2 6 C0.35 6 -1.3 6 -3 6 C-3 5.01 -3 4.02 -3 3 C-2.01 3 -1.02 3 0 3 C0 2.01 0 1.02 0 0 Z " fill="#219389" transform="translate(391,238)"/>
<path d="M0 0 C1.32 0 2.64 0 4 0 C4 0.66 4 1.32 4 2 C7.02089478 2.02716089 10.04154129 2.04691657 13.0625 2.0625 C13.91005859 2.07087891 14.75761719 2.07925781 15.63085938 2.08789062 C20.5361722 2.10683006 25.16444755 1.83326345 30 1 C28.68724357 3.62551287 27.6756418 3.69506505 24.9375 4.625 C17.1728395 7.02922347 10.39429015 6.54400889 3 3 C1.23828125 1.39453125 1.23828125 1.39453125 0 0 Z " fill="#399C97" transform="translate(98,268)"/>
<path d="M0 0 C-0.33 1.65 -0.66 3.3 -1 5 C-0.01 5.66 0.98 6.32 2 7 C-1.63 7 -5.26 7 -9 7 C-10 2 -10 2 -9 0.125 C-5.89740743 -1.62020832 -3.3726293 -0.69997967 0 0 Z " fill="#0D8A86" transform="translate(126,292)"/>
<path d="M0 0 C1.32 0.33 2.64 0.66 4 1 C3.01 2.98 2.02 4.96 1 7 C2.32 7 3.64 7 5 7 C5.33 6.34 5.66 5.68 6 5 C6.33 5.99 6.66 6.98 7 8 C6.01 8 5.02 8 4 8 C4 8.99 4 9.98 4 11 C5.65 11 7.3 11 9 11 C9 12.65 9 14.3 9 16 C8.34 15.34 7.68 14.68 7 14 C4.34462628 13.43479997 1.70855287 13.26211802 -1 13 C-1.66 14.32 -2.32 15.64 -3 17 C-3 15.35 -3 13.7 -3 12 C-1.68 11.67 -0.36 11.34 1 11 C0.67 10.01 0.34 9.02 0 8 C-0.12781786 5.32605036 -0.04391871 2.67904143 0 0 Z " fill="#389F95" transform="translate(384,233)"/>
<path d="M0 0 C0.66 0 1.32 0 2 0 C0.35942492 4.66932907 0.35942492 4.66932907 -1.5625 6.4375 C-3.6576525 8.71483967 -3.66634356 10.99709203 -4 14 C-4.763125 13.95875 -5.52625 13.9175 -6.3125 13.875 C-9.22718416 13.77919176 -9.22718416 13.77919176 -12 16 C-12.33 15.01 -12.66 14.02 -13 13 C-12.34 13 -11.68 13 -11 13 C-11 12.34 -11 11.68 -11 11 C-10.34 11 -9.68 11 -9 11 C-8.773125 10.443125 -8.54625 9.88625 -8.3125 9.3125 C-6.62449964 6.33840412 -4.53323483 4.27991135 -2 2 C-1.34 2 -0.68 2 0 2 C0 1.34 0 0.68 0 0 Z " fill="#279792" transform="translate(134,276)"/>
<path d="M0 0 C0.33 0 0.66 0 1 0 C1.33 8.91 1.66 17.82 2 27 C3.65 27 5.3 27 7 27 C7 27.66 7 28.32 7 29 C6.34 29 5.68 29 5 29 C5 29.66 5 30.32 5 31 C4.34 31 3.68 31 3 31 C3 31.66 3 32.32 3 33 C2.01 32.67 1.02 32.34 0 32 C0 21.44 0 10.88 0 0 Z " fill="#9FD0D0" transform="translate(115,212)"/>
<path d="M0 0 C0.33 0 0.66 0 1 0 C1.33 2.64 1.66 5.28 2 8 C1.34 8 0.68 8 0 8 C-0.6878236 10.35367713 -0.6878236 10.35367713 -1 13 C-0.01 14.485 -0.01 14.485 1 16 C0.236875 16.53625 -0.52625 17.0725 -1.3125 17.625 C-4.22864474 20.20205814 -5.4705622 22.45814404 -7 26 C-7.66 25.67 -8.32 25.34 -9 25 C-7.87685891 21.77018378 -6.75115766 18.54126553 -5.625 15.3125 C-5.14933594 13.94448242 -5.14933594 13.94448242 -4.6640625 12.54882812 C-4.3546875 11.66259766 -4.0453125 10.77636719 -3.7265625 9.86328125 C-3.44377441 9.05157471 -3.16098633 8.23986816 -2.86962891 7.40356445 C-1.96803802 4.91166039 -0.99728271 2.45499672 0 0 Z " fill="#53ABA3" transform="translate(382,224)"/>
<path d="M0 0 C1.32 0 2.64 0 4 0 C4 2.64 4 5.28 4 8 C4.99 8 5.98 8 7 8 C7 9.32 7 10.64 7 12 C4.69 12 2.38 12 0 12 C0 8.04 0 4.08 0 0 Z " fill="#69ACA8" transform="translate(309,268)"/>
<path d="M0 0 C0.91007812 0.00902344 1.82015625 0.01804688 2.7578125 0.02734375 C3.80582031 0.04474609 3.80582031 0.04474609 4.875 0.0625 C4.875 0.3925 4.875 0.7225 4.875 1.0625 C0.42 1.5575 0.42 1.5575 -4.125 2.0625 C-4.125 2.7225 -4.125 3.3825 -4.125 4.0625 C-4.785 4.0625 -5.445 4.0625 -6.125 4.0625 C-6.125 4.7225 -6.125 5.3825 -6.125 6.0625 C-6.785 6.0625 -7.445 6.0625 -8.125 6.0625 C-8.125 6.7225 -8.125 7.3825 -8.125 8.0625 C-9.875 9.5703125 -9.875 9.5703125 -12.125 11.1875 C-12.8675 11.72632813 -13.61 12.26515625 -14.375 12.8203125 C-14.9525 13.23023438 -15.53 13.64015625 -16.125 14.0625 C-16.455 13.4025 -16.785 12.7425 -17.125 12.0625 C-16.795 11.0725 -16.465 10.0825 -16.125 9.0625 C-15.135 8.7325 -14.145 8.4025 -13.125 8.0625 C-12.795 7.0725 -12.465 6.0825 -12.125 5.0625 C-10.805 5.0625 -9.485 5.0625 -8.125 5.0625 C-8.00125 4.423125 -7.8775 3.78375 -7.75 3.125 C-7.54375 2.444375 -7.3375 1.76375 -7.125 1.0625 C-4.60024538 -0.19987731 -2.81299534 -0.03606404 0 0 Z " fill="#51ACA4" transform="translate(152.125,210.9375)"/>
<path d="M0 0 C2.31 0 4.62 0 7 0 C7 3.63 7 7.26 7 11 C6.01 11.495 6.01 11.495 5 12 C5 8.7 5 5.4 5 2 C3.68 2 2.36 2 1 2 C1 9.59 1 17.18 1 25 C0.67 25 0.34 25 0 25 C0 16.75 0 8.5 0 0 Z " fill="#3A968C" transform="translate(216,223)"/>
<path d="M0 0 C0.66 0 1.32 0 2 0 C2 0.66 2 1.32 2 2 C2.66 2 3.32 2 4 2 C4 3.98 4 5.96 4 8 C7.48670834 6.8905928 10.77484237 5.73662334 14 4 C14.33 4.66 14.66 5.32 15 6 C14.34 7.32 13.68 8.64 13 10 C9.7 10 6.4 10 3 10 C0 3.375 0 3.375 0 0 Z " fill="#3F9E93" transform="translate(345,240)"/>
<path d="M0 0 C0.66 0 1.32 0 2 0 C2 0.99 2 1.98 2 3 C2.99 3.33 3.98 3.66 5 4 C4.67 4.66 4.34 5.32 4 6 C3.34 6 2.68 6 2 6 C2 6.66 2 7.32 2 8 C1.34 8 0.68 8 0 8 C0 8.66 0 9.32 0 10 C-1.75 11.7265625 -1.75 11.7265625 -4 13.625 C-4.7425 14.25664062 -5.485 14.88828125 -6.25 15.5390625 C-6.8275 16.02117187 -7.405 16.50328125 -8 17 C-8.33 16.01 -8.66 15.02 -9 14 C-8.34 14 -7.68 14 -7 14 C-6.34 12.68 -5.68 11.36 -5 10 C-4.34 10 -3.68 10 -3 10 C-1.11608215 6.73454239 -0.50712033 3.71888239 0 0 Z " fill="#5EB0A9" transform="translate(131,222)"/>
<path d="M0 0 C1.32 0 2.64 0 4 0 C4 3.96 4 7.92 4 12 C2.68 12 1.36 12 0 12 C0 8.04 0 4.08 0 0 Z " fill="#60A8A5" transform="translate(373,268)"/>
<path d="M0 0 C1.32 0 2.64 0 4 0 C4 3.96 4 7.92 4 12 C2.68 12 1.36 12 0 12 C0 8.04 0 4.08 0 0 Z " fill="#67A7A3" transform="translate(335,268)"/>
<path d="M0 0 C0.99 0.66 1.98 1.32 3 2 C1.45672226 3.70509716 -0.1103675 5.3886674 -1.6875 7.0625 C-2.55761719 8.00222656 -3.42773438 8.94195312 -4.32421875 9.91015625 C-7 12 -7 12 -9.70703125 11.99609375 C-12 11 -12 11 -14 8 C-11.03 8 -8.06 8 -5 8 C-5 7.01 -5 6.02 -5 5 C-4.01 5 -3.02 5 -2 5 C-2 4.01 -2 3.02 -2 2 C-1.34 2 -0.68 2 0 2 C0 1.34 0 0.68 0 0 Z " fill="#7CBDBA" transform="translate(165,229)"/>
<path d="M0 0 C1.9451 2.91765 2.45276317 4.62537285 3 8 C2.01 8.66 1.02 9.32 0 10 C-1.19232613 12.05003955 -1.19232613 12.05003955 -2 14 C-2.99 14 -3.98 14 -5 14 C-4.28269264 10.76834156 -3.18684926 7.81292078 -1.9375 4.75 C-1.57527344 3.85796875 -1.21304687 2.9659375 -0.83984375 2.046875 C-0.56269531 1.37140625 -0.28554688 0.6959375 0 0 Z " fill="#2F9891" transform="translate(357,228)"/>
<path d="M0 0 C2.64 0 5.28 0 8 0 C8.103125 0.94875 8.20625 1.8975 8.3125 2.875 C8.68539295 6.29107501 8.68539295 6.29107501 12 8 C12.6875 10.125 12.6875 10.125 13 12 C12.34 12 11.68 12 11 12 C11 11.34 11 10.68 11 10 C10.34 10 9.68 10 9 10 C9 9.34 9 8.68 9 8 C8.34 8 7.68 8 7 8 C7 7.34 7 6.68 7 6 C6.34 6 5.68 6 5 6 C5 5.34 5 4.68 5 4 C4.360625 3.71125 3.72125 3.4225 3.0625 3.125 C1 2 1 2 0 0 Z " fill="#3EA39E" transform="translate(140,259)"/>
<path d="M0 0 C1.11328125 1.62109375 1.11328125 1.62109375 2 4 C1.35546875 6.91015625 1.35546875 6.91015625 0.1875 10.0625 C-0.19019531 11.10535156 -0.56789063 12.14820313 -0.95703125 13.22265625 C-1.30121094 14.13917969 -1.64539063 15.05570313 -2 16 C-2.33 16.99 -2.66 17.98 -3 19 C-3.99 19 -4.98 19 -6 19 C-4.12275039 12.62267685 -2.14328358 6.29304541 0 0 Z " fill="#53A59D" transform="translate(311,231)"/>
<path d="M0 0 C0.433125 0.495 0.86625 0.99 1.3125 1.5 C2.99740483 3.33218192 2.99740483 3.33218192 6 3 C6.33 2.01 6.66 1.02 7 0 C7.66 0 8.32 0 9 0 C11.42857143 6.28571429 11.42857143 6.28571429 10 10 C9.34 8.68 8.68 7.36 8 6 C7.01 6 6.02 6 5 6 C4.34 6.66 3.68 7.32 3 8 C0 3.375 0 3.375 0 0 Z " fill="#4CA9A0" transform="translate(318,232)"/>
<path d="M0 0 C1.98 0.66 3.96 1.32 6 2 C5.67 3.98 5.34 5.96 5 8 C3.02 8 1.04 8 -1 8 C-1.66 6.68 -2.32 5.36 -3 4 C-1.35 4 0.3 4 2 4 C1.34 3.67 0.68 3.34 0 3 C0 2.01 0 1.02 0 0 Z " fill="#469B96" transform="translate(355,272)"/>
<path d="M0 0 C3.28212246 0.43761633 4.84832931 1.52557871 7 4 C3 5 3 5 1.125 5.4375 C-1.62774793 6.16616857 -4.30551219 7.08142461 -7 8 C-6.02133662 6.85373678 -5.04205413 5.70800212 -4.0625 4.5625 C-3.51722656 3.92441406 -2.97195312 3.28632813 -2.41015625 2.62890625 C-1.63204305 1.73008851 -0.84063472 0.84063472 0 0 Z " fill="#5AAFAD" transform="translate(138,242)"/>
<path d="M0 0 C0.33 0 0.66 0 1 0 C1.33 4.29 1.66 8.58 2 13 C2.66 13 3.32 13 4 13 C3.6875 14.9375 3.6875 14.9375 3 17 C2.01 17.33 1.02 17.66 0 18 C-1.82116003 16.17883997 -1.1323508 13.69328236 -1.13671875 11.2734375 C-1.13285156 10.52320313 -1.12898438 9.77296875 -1.125 9 C-1.12886719 8.24976563 -1.13273437 7.49953125 -1.13671875 6.7265625 C-1.12661053 1.12661053 -1.12661053 1.12661053 0 0 Z " fill="#51B2AD" transform="translate(127,201)"/>
<path d="M0 0 C0.99 0.33 1.98 0.66 3 1 C1.38113585 2.67262717 -0.2452729 4.33795537 -1.875 6 C-2.77992188 6.928125 -3.68484375 7.85625 -4.6171875 8.8125 C-7 11 -7 11 -9 11 C-8.44848637 7.23132354 -6.9602745 5.65408496 -4.125 3.1875 C-3.42632812 2.56230469 -2.72765625 1.93710937 -2.0078125 1.29296875 C-1.34523437 0.86628906 -0.68265625 0.43960937 0 0 Z " fill="#62B5B2" transform="translate(137,258)"/>
<path d="M0 0 C4.75978668 4.38401404 6.81002915 7.19793003 7.25 13.6875 C7 17 7 17 5 19 C5 15.7 5 12.4 5 9 C4.34 9 3.68 9 3 9 C0 3.375 0 3.375 0 0 Z " fill="#6BB8B5" transform="translate(167,204)"/>
<path d="M0 0 C1.32 0 2.64 0 4 0 C4 2.97 4 5.94 4 9 C4.66 9 5.32 9 6 9 C6 9.66 6 10.32 6 11 C4.35 11 2.7 11 1 11 C0.67 7.37 0.34 3.74 0 0 Z " fill="#348B84" transform="translate(317,268)"/>
<path d="M0 0 C0.99 0.33 1.98 0.66 3 1 C3 1.66 3 2.32 3 3 C3.598125 3.12375 4.19625 3.2475 4.8125 3.375 C7 4 7 4 10 6 C10 6.66 10 7.32 10 8 C7.36 8 4.72 8 2 8 C2 6.35 2 4.7 2 3 C1.34 2.67 0.68 2.34 0 2 C0 1.34 0 0.68 0 0 Z " fill="#25907F" transform="translate(229,242)"/>
<path d="M0 0 C1.65 0 3.3 0 5 0 C6.4783226 2.95664519 6.06032783 5.74229737 6 9 C5.34 9 4.68 9 4 9 C4 8.01 4 7.02 4 6 C2.68 5.67 1.36 5.34 0 5 C0 3.35 0 1.7 0 0 Z " fill="#118F81" transform="translate(341,225)"/>
<path d="M0 0 C0.33 0 0.66 0 1 0 C1.33 8.25 1.66 16.5 2 25 C3.32 25.66 4.64 26.32 6 27 C6 27.33 6 27.66 6 28 C4.02 28 2.04 28 0 28 C0 18.76 0 9.52 0 0 Z " fill="#70AEA9" transform="translate(197,286)"/>
<path d="M0 0 C1.32 0.33 2.64 0.66 4 1 C4 1.66 4 2.32 4 3 C4.66 3 5.32 3 6 3 C6 3.66 6 4.32 6 5 C6.99 5.33 7.98 5.66 9 6 C8.67 8.97 8.34 11.94 8 15 C7.01 15 6.02 15 5 15 C5.33 14.67 5.66 14.34 6 14 C6.5863982 11.21276343 6.5863982 11.21276343 6 8 C4.56744687 6.22497061 3.03969369 4.78418068 1.3125 3.296875 C0.879375 2.86890625 0.44625 2.4409375 0 2 C0 1.34 0 0.68 0 0 Z " fill="#61B7B3" transform="translate(153,271)"/>
<path d="M0 0 C0.99 0 1.98 0 3 0 C3 1.32 3 2.64 3 4 C5.64 4 8.28 4 11 4 C11 5.65 11 7.3 11 9 C8.69 9 6.38 9 4 9 C5.32 8.01 6.64 7.02 8 6 C5.69 5.67 3.38 5.34 1 5 C0.67 3.35 0.34 1.7 0 0 Z " fill="#1C8880" transform="translate(284,230)"/>
<path d="M0 0 C2.94422416 0.30457491 3.85920226 0.83492679 5.8125 3.125 C7.32812083 6.79439779 6.8250398 9.17481546 6 13 C5.34 13 4.68 13 4 13 C4 10 4 7 4 4 C2.35 4 0.7 4 -1 4 C-0.67 2.68 -0.34 1.36 0 0 Z " fill="#49A399" transform="translate(263,224)"/>
<path d="M0 0 C2.97 0 5.94 0 9 0 C9 0.99 9 1.98 9 3 C8.34 3 7.68 3 7 3 C6.7525 3.7425 6.505 4.485 6.25 5.25 C4.90852699 8.20124062 3.39094474 9.84814974 1 12 C1 10.35 1 8.7 1 7 C1.99 6.67 2.98 6.34 4 6 C4 4.68 4 3.36 4 2 C2.68 1.34 1.36 0.68 0 0 Z " fill="#71B8AF" transform="translate(230,223)"/>
<path d="M0 0 C1.65 0 3.3 0 5 0 C4.01 0.495 4.01 0.495 3 1 C3 1.66 3 2.32 3 3 C3.66 3 4.32 3 5 3 C4.49396008 5.16874252 4.00016187 6.99967627 3 9 C2.01 9 1.02 9 0 9 C0 6.03 0 3.06 0 0 Z " fill="#238880" transform="translate(231,270)"/>
<path d="M0 0 C0.99 0.33 1.98 0.66 3 1 C3 1.66 3 2.32 3 3 C3.66 3 4.32 3 5 3 C6.2890625 4.53125 6.2890625 4.53125 7.625 6.5 C8.07101563 7.1496875 8.51703125 7.799375 8.9765625 8.46875 C9.48316406 9.22671875 9.48316406 9.22671875 10 10 C7.625 10.625 7.625 10.625 5 11 C2.80808632 8.80808632 2.72130648 7.88522592 2 5 C1.34 4.34 0.68 3.68 0 3 C0 2.01 0 1.02 0 0 Z " fill="#37A39D" transform="translate(154,256)"/>
<path d="M0 0 C0.70125 0.474375 1.4025 0.94875 2.125 1.4375 C7.24059901 4.21771685 11.38359537 4.20351528 17 3 C17 3.99 17 4.98 17 6 C5.68490113 6.4025134 5.68490113 6.4025134 1 4 C0.125 1.875 0.125 1.875 0 0 Z " fill="#4EA4A0" transform="translate(104,257)"/>
<path d="M0 0 C0.66 0 1.32 0 2 0 C2 3.3 2 6.6 2 10 C-0.31 10 -2.62 10 -5 10 C-4.34 8.35 -3.68 6.7 -3 5 C-2.34 5 -1.68 5 -1 5 C-0.67 3.35 -0.34 1.7 0 0 Z " fill="#19887C" transform="translate(221,240)"/>
<path d="M0 0 C1.27875 -0.061875 2.5575 -0.12375 3.875 -0.1875 C4.95394531 -0.23970703 4.95394531 -0.23970703 6.0546875 -0.29296875 C6.69664062 -0.19628906 7.33859375 -0.09960938 8 0 C10.29633824 3.44450737 10.54016485 5.93812283 11 10 C10.34 10 9.68 10 9 10 C8.34 7.36 7.68 4.72 7 2 C5.35 2 3.7 2 2 2 C1.67 2.99 1.34 3.98 1 5 C0.67 3.35 0.34 1.7 0 0 Z " fill="#6BB5AD" transform="translate(339,223)"/>
<path d="M0 0 C1.98 0.66 3.96 1.32 6 2 C6.66 1.34 7.32 0.68 8 0 C7.125 4.875 7.125 4.875 6 6 C4.33382885 6.04063832 2.66611905 6.042721 1 6 C-0.0625 4.125 -0.0625 4.125 -1 2 C-0.67 1.34 -0.34 0.68 0 0 Z " fill="#5CB1AB" transform="translate(291,274)"/>
<path d="M0 0 C2.7648665 -0.22417836 4.46277487 -0.32233508 6.875 1.125 C8.54501341 3.90835569 7.64396255 5.90897977 7 9 C7.33 9.99 7.66 10.98 8 12 C6.35 12 4.7 12 3 12 C3.66 11.67 4.32 11.34 5 11 C5 10.01 5 9.02 5 8 C4.34 7.67 3.68 7.34 3 7 C3.99 6.67 4.98 6.34 6 6 C5.29660434 3.49034386 5.29660434 3.49034386 4 1 C1.95894361 0.11306697 1.95894361 0.11306697 0 0 Z " fill="#72B9B3" transform="translate(380,268)"/>
<path d="M0 0 C1.32 0 2.64 0 4 0 C4 0.66 4 1.32 4 2 C4.928125 1.95875 5.85625 1.9175 6.8125 1.875 C10 2 10 2 13 4 C15.32387947 4.39387788 17.65793749 4.73486085 20 5 C20 5.33 20 5.66 20 6 C13.84278535 6.33584807 8.61843855 5.69286108 3 3 C1.23828125 1.39453125 1.23828125 1.39453125 0 0 Z " fill="#78C0BC" transform="translate(98,268)"/>
<path d="M0 0 C1.32 0 2.64 0 4 0 C4.33 1.98 4.66 3.96 5 6 C3.02 6 1.04 6 -1 6 C-1.042721 4.33388095 -1.04063832 2.66617115 -1 1 C-0.67 0.67 -0.34 0.34 0 0 Z " fill="#118B7E" transform="translate(326,244)"/>
<path d="M0 0 C2.97 0 5.94 0 9 0 C7.68 0.33 6.36 0.66 5 1 C5 2.32 5 3.64 5 5 C4.01 5.33 3.02 5.66 2 6 C2 5.01 2 4.02 2 3 C1.34 3 0.68 3 0 3 C0 3.66 0 4.32 0 5 C-0.66 5 -1.32 5 -2 5 C-1.34 3.35 -0.68 1.7 0 0 Z " fill="#2F998E" transform="translate(229,224)"/>
<path d="M0 0 C2.475 0.495 2.475 0.495 5 1 C5 1.66 5 2.32 5 3 C4.34 3 3.68 3 3 3 C2.67 5.31 2.34 7.62 2 10 C1.34 9.67 0.68 9.34 0 9 C0 6.03 0 3.06 0 0 Z " fill="#15837E" transform="translate(379,268)"/>
<path d="M0 0 C0.66 0.99 1.32 1.98 2 3 C4.88595946 3.58481121 4.88595946 3.58481121 8.125 3.6875 C9.22070312 3.75324219 10.31640625 3.81898438 11.4453125 3.88671875 C12.28835937 3.92410156 13.13140625 3.96148437 14 4 C14 4.33 14 4.66 14 5 C8.39 5 2.78 5 -3 5 C-1 1 -1 1 0 0 Z " fill="#87C9C4" transform="translate(115,295)"/>
<path d="M0 0 C1.32 0.33 2.64 0.66 4 1 C4 2.32 4 3.64 4 5 C3.01 4.67 2.02 4.34 1 4 C1 6.31 1 8.62 1 11 C1.66 11.33 2.32 11.66 3 12 C2.01 12 1.02 12 0 12 C0 8.04 0 4.08 0 0 Z " fill="#56A29F" transform="translate(341,268)"/>
<path d="M0 0 C1.9375 0.8125 1.9375 0.8125 4 2 C4.33 2.99 4.66 3.98 5 5 C5.66 5 6.32 5 7 5 C7 5.66 7 6.32 7 7 C7.66 7 8.32 7 9 7 C9 7.66 9 8.32 9 9 C7.35 8.67 5.7 8.34 4 8 C4 7.34 4 6.68 4 6 C3.34 5.67 2.68 5.34 2 5 C2.33 4.34 2.66 3.68 3 3 C2.34 3 1.68 3 1 3 C0.67 2.01 0.34 1.02 0 0 Z " fill="#5EB2AD" transform="translate(137,276)"/>
<path d="M0 0 C0.66 0 1.32 0 2 0 C0.73317448 3.90604537 -0.43283565 5.90166803 -4 8 C-5.3265001 8.35956413 -6.65942346 8.69710823 -8 9 C-7.04882866 7.8274869 -6.08882991 6.66212985 -5.125 5.5 C-4.32449219 4.52546875 -4.32449219 4.52546875 -3.5078125 3.53125 C-2.76144531 2.77328125 -2.76144531 2.77328125 -2 2 C-1.34 2 -0.68 2 0 2 C0 1.34 0 0.68 0 0 Z " fill="#6CB5B1" transform="translate(134,276)"/>
<path d="M0 0 C0.99 0.495 0.99 0.495 2 1 C2 1.66 2 2.32 2 3 C2.66 3.33 3.32 3.66 4 4 C3.01 5.485 3.01 5.485 2 7 C3.32 7 4.64 7 6 7 C6 7.66 6 8.32 6 9 C4.33388095 9.042721 2.66617115 9.04063832 1 9 C0 8 0 8 -0.09765625 6.15234375 C-0.06510417 4.1015625 -0.03255208 2.05078125 0 0 Z " fill="#15817C" transform="translate(273,270)"/>
<path d="M0 0 C3.08236365 2.78407039 3.95206337 3.80825346 5 8 C2.03 8 -0.94 8 -4 8 C-4 7.34 -4 6.68 -4 6 C-2.68 5.67 -1.36 5.34 0 5 C0 4.01 0 3.02 0 2 C0 1.34 0 0.68 0 0 Z " fill="#49A296" transform="translate(265,242)"/>
<path d="M0 0 C0.99 0 1.98 0 3 0 C4.35439668 2.70879335 4.06501451 5.00933268 4 8 C2.68 7.34 1.36 6.68 0 6 C0 4.02 0 2.04 0 0 Z " fill="#258F86" transform="translate(255,270)"/>
<path d="M0 0 C0 0.66 0 1.32 0 2 C-0.99 2 -1.98 2 -3 2 C-3 2.66 -3 3.32 -3 4 C-1.68 4 -0.36 4 1 4 C1 4.66 1 5.32 1 6 C-1.31 6 -3.62 6 -6 6 C-5.625 3.5625 -5.625 3.5625 -5 1 C-3 0 -3 0 0 0 Z " fill="#227E7C" transform="translate(307,273)"/>
<path d="M0 0 C1.32 0.33 2.64 0.66 4 1 C4 1.66 4 2.32 4 3 C5.32 3.33 6.64 3.66 8 4 C7.67 4.99 7.34 5.98 7 7 C4.50638429 5.79618552 2.31856917 4.54571278 0 3 C0 2.01 0 1.02 0 0 Z " fill="#238982" transform="translate(290,270)"/>
<path d="M0 0 C0.66 0 1.32 0 2 0 C2 1.65 2 3.3 2 5 C0.35 5 -1.3 5 -3 5 C-3.33 5.66 -3.66 6.32 -4 7 C-4 5.35 -4 3.7 -4 2 C-2.68 2 -1.36 2 0 2 C0 1.34 0 0.68 0 0 Z " fill="#19857D" transform="translate(368,271)"/>
<path d="M0 0 C0 0.66 0 1.32 0 2 C-0.928125 2.1546875 -0.928125 2.1546875 -1.875 2.3125 C-4.36526484 2.87525373 -4.36526484 2.87525373 -6 6 C-6.66 6 -7.32 6 -8 6 C-7.625 3.5625 -7.625 3.5625 -7 1 C-4.53721199 -0.231394 -2.7204945 -0.07159196 0 0 Z " fill="#218679" transform="translate(227,270)"/>
<path d="M0 0 C0.33 0.99 0.66 1.98 1 3 C0.01 4.485 0.01 4.485 -1 6 C0.65 6 2.3 6 4 6 C2.1875 7.0625 2.1875 7.0625 0 8 C-0.99 7.67 -1.98 7.34 -3 7 C-2.25 2.25 -2.25 2.25 0 0 Z " fill="#399E9A" transform="translate(119,291)"/>
<path d="M0 0 C2.31 0 4.62 0 7 0 C7.33 0.66 7.66 1.32 8 2 C7.0625 4.625 7.0625 4.625 6 7 C5.67 7 5.34 7 5 7 C5 5.35 5 3.7 5 2 C3.35 1.67 1.7 1.34 0 1 C0 0.67 0 0.34 0 0 Z " fill="#6BAFAA" transform="translate(359,223)"/>
<path d="M0 0 C-0.33 1.32 -0.66 2.64 -1 4 C-2.65 4 -4.3 4 -6 4 C-6 3.01 -6 2.02 -6 1 C-4 0 -4 0 0 0 Z " fill="#489B93" transform="translate(229,275)"/>
<path d="M0 0 C0.99 0.33 1.98 0.66 3 1 C3.33 3.31 3.66 5.62 4 8 C3.01 7.67 2.02 7.34 1 7 C0.67 4.69 0.34 2.38 0 0 Z " fill="#5AADA9" transform="translate(100,249)"/>
<path d="M0 0 C2.31 0 4.62 0 7 0 C7 0.99 7 1.98 7 3 C4.03 2.505 4.03 2.505 1 2 C0.67 3.32 0.34 4.64 0 6 C0 4.02 0 2.04 0 0 Z " fill="#72AAA9" transform="translate(389,268)"/>
<path d="M0 0 C2.49361571 1.20381448 4.68143083 2.45428722 7 4 C7.6875 6.125 7.6875 6.125 8 8 C7.34 8 6.68 8 6 8 C6 7.34 6 6.68 6 6 C5.34 6 4.68 6 4 6 C4 5.34 4 4.68 4 4 C3.34 4 2.68 4 2 4 C2 3.34 2 2.68 2 2 C1.34 2 0.68 2 0 2 C0 1.34 0 0.68 0 0 Z " fill="#54AEAA" transform="translate(145,263)"/>
<path d="M0 0 C1.69141656 0.08963062 3.37959602 0.24577676 5.0625 0.4375 C6.44115234 0.59025391 6.44115234 0.59025391 7.84765625 0.74609375 C8.55792969 0.82988281 9.26820313 0.91367188 10 1 C9.67 1.66 9.34 2.32 9 3 C6.36 2.67 3.72 2.34 1 2 C0.34 3.32 -0.32 4.64 -1 6 C-1.042721 4.33388095 -1.04063832 2.66617115 -1 1 C-0.67 0.67 -0.34 0.34 0 0 Z " fill="#72C1BB" transform="translate(382,244)"/>
<path d="M0 0 C1.32 0 2.64 0 4 0 C4 0.99 4 1.98 4 3 C3.34 3 2.68 3 2 3 C2 4.32 2 5.64 2 7 C1.34 7 0.68 7 0 7 C0 4.69 0 2.38 0 0 Z " fill="#11807E" transform="translate(342,272)"/>
<path d="M0 0 C2.97 0 5.94 0 9 0 C8.67 0.66 8.34 1.32 8 2 C6.68 2 5.36 2 4 2 C3.67 2.99 3.34 3.98 3 5 C3 4.34 3 3.68 3 3 C2.01 3 1.02 3 0 3 C0 2.01 0 1.02 0 0 Z " fill="#4C948C" transform="translate(261,269)"/>
<path d="M0 0 C3.73639216 1.24546405 4.18756513 2.63404953 6 6 C5.01 6.495 5.01 6.495 4 7 C4 6.34 4 5.68 4 5 C2.68 5 1.36 5 0 5 C0 3.35 0 1.7 0 0 Z " fill="#55ABA5" transform="translate(145,247)"/>
<path d="M0 0 C1.65 0.33 3.3 0.66 5 1 C5.33 1.99 5.66 2.98 6 4 C3.69 3.67 1.38 3.34 -1 3 C-0.67 2.01 -0.34 1.02 0 0 Z " fill="#43A69F" transform="translate(139,243)"/>
<path d="M0 0 C1.32 0.33 2.64 0.66 4 1 C4.33 3.31 4.66 5.62 5 8 C2.27573689 5.64722731 1.1858237 3.37503669 0 0 Z " fill="#4BA49B" transform="translate(256,240)"/>
<path d="M0 0 C1.32 0.33 2.64 0.66 4 1 C4.33 3.31 4.66 5.62 5 8 C4.01 8.495 4.01 8.495 3 9 C2.01 6.03 1.02 3.06 0 0 Z " fill="#60B3AB" transform="translate(341,230)"/>
<path d="M0 0 C0.66 0 1.32 0 2 0 C2 0.99 2 1.98 2 3 C2.99 3.33 3.98 3.66 5 4 C4.67 4.66 4.34 5.32 4 6 C2.68 6 1.36 6 0 6 C0 4.02 0 2.04 0 0 Z " fill="#3BA19D" transform="translate(131,222)"/>
<path d="M0 0 C0 0.99 0 1.98 0 3 C-2.31 3 -4.62 3 -7 3 C-7 2.34 -7 1.68 -7 1 C-4 0 -4 0 0 0 Z " fill="#57A19C" transform="translate(396,277)"/>
<path d="M0 0 C0.99 0 1.98 0 3 0 C3 2.31 3 4.62 3 7 C2.01 6.67 1.02 6.34 0 6 C0 4.02 0 2.04 0 0 Z " fill="#218077" transform="translate(310,269)"/>
<path d="M0 0 C0.721875 0.474375 1.44375 0.94875 2.1875 1.4375 C4.89475226 2.94152903 6.96194275 3.56599182 10 4 C10 4.33 10 4.66 10 5 C7.36 5 4.72 5 2 5 C1.34 3.35 0.68 1.7 0 0 Z " fill="#71BCBC" transform="translate(104,257)"/>
<path d="M0 0 C2.52588702 2.36292656 3.88820837 3.66462511 5 7 C4.01 7 3.02 7 2 7 C0 4 0 4 0 0 Z " fill="#55ABA3" transform="translate(91,256)"/>
<path d="M0 0 C0.99 0.33 1.98 0.66 3 1 C3 1.99 3 2.98 3 4 C1.02 4 -0.96 4 -3 4 C-2.67 3.01 -2.34 2.02 -2 1 C-1.34 0.67 -0.68 0.34 0 0 Z " fill="#168977" transform="translate(378,246)"/>
<path d="M0 0 C0.98120464 3.05263664 0.98120464 4.94736336 0 8 C-0.99 8 -1.98 8 -3 8 C-2.37240135 5.07120629 -1.41377341 2.63904371 0 0 Z " fill="#67B7B2" transform="translate(355,234)"/>
<path d="M0 0 C1.32 0.33 2.64 0.66 4 1 C4 2.65 4 4.3 4 6 C2.68 6 1.36 6 0 6 C0 4 0 2 0 0 Z " fill="#63C2BD" transform="translate(275,271)"/>
<path d="M0 0 C0.99 0.33 1.98 0.66 3 1 C3 1.66 3 2.32 3 3 C3.66 3 4.32 3 5 3 C5.33 3.99 5.66 4.98 6 6 C5.01 6.495 5.01 6.495 4 7 C2.66666667 5.66666667 1.33333333 4.33333333 0 3 C0 2.01 0 1.02 0 0 Z " fill="#6EB8B3" transform="translate(154,256)"/>
<path d="M0 0 C0.99 0.33 1.98 0.66 3 1 C3 1.66 3 2.32 3 3 C3.99 3.33 4.98 3.66 6 4 C5.67 4.66 5.34 5.32 5 6 C4.01 6 3.02 6 2 6 C2 5.01 2 4.02 2 3 C1.34 2.67 0.68 2.34 0 2 C0 1.34 0 0.68 0 0 Z " fill="#088D84" transform="translate(229,242)"/>
<path d="M0 0 C2.31 0.33 4.62 0.66 7 1 C7 1.99 7 2.98 7 4 C4.625 3.6875 4.625 3.6875 2 3 C1.34 2.01 0.68 1.02 0 0 Z " fill="#69B4B2" transform="translate(151,237)"/>
<path d="M0 0 C1.13643966 3.40931897 0.86747764 4.00335456 -0.4375 7.1875 C-0.86869141 8.26064453 -0.86869141 8.26064453 -1.30859375 9.35546875 C-1.53675781 9.89816406 -1.76492188 10.44085938 -2 11 C-2.33 11 -2.66 11 -3 11 C-2.88590407 9.54077307 -2.75834456 8.08259402 -2.625 6.625 C-2.55539062 5.81289062 -2.48578125 5.00078125 -2.4140625 4.1640625 C-2 2 -2 2 0 0 Z " fill="#77B9B5" transform="translate(363,232)"/>
<path d="M0 0 C0.66 0 1.32 0 2 0 C1.43628586 3.26954202 0.50037734 4.82575883 -2 7 C-2.125 4.625 -2.125 4.625 -2 2 C-1.34 1.34 -0.68 0.68 0 0 Z " fill="#54B0AD" transform="translate(170,223)"/>
<path d="M0 0 C0.99 0 1.98 0 3 0 C3 1.32 3 2.64 3 4 C2.01 4 1.02 4 0 4 C-0.33 3.01 -0.66 2.02 -1 1 C-0.67 0.67 -0.34 0.34 0 0 Z " fill="#69A6A2" transform="translate(281,276)"/>
</svg>
